<?xml version="1.0" encoding="UTF-8"?>
<svg width="45px" height="45px" viewBox="0 0 45 45" version="1.1" xmlns="http://www.w3.org/2000/svg" xmlns:xlink="http://www.w3.org/1999/xlink">
    <!-- Generator: Sketch 47.1 (45422) - http://www.bohemiancoding.com/sketch -->
    <title>Slice 1</title>
    <desc>Created with Sketch.</desc>
    <defs></defs>
    <g id="Page-1" stroke="none" stroke-width="1" fill="none" fill-rule="evenodd">
        <g id="add-circular-button" fill-rule="nonzero" fill="#9B9B9B">
            <path d="M22.119,44.237 C9.922,44.237 0,34.315 0,22.12 C0,9.924 9.922,0.001 22.119,0.001 C34.316,0.001 44.238,9.923 44.238,22.12 C44.238,34.317 34.314,44.237 22.119,44.237 Z M22.119,1.501 C10.75,1.501 1.5,10.751 1.5,22.12 C1.5,33.489 10.75,42.739 22.119,42.739 C33.488,42.739 42.738,33.489 42.738,22.12 C42.738,10.751 33.488,1.501 22.119,1.501 Z" id="Shape"></path>
            <path d="M31.434,22.869 L12.805,22.869 C12.391,22.869 12.055,22.533 12.055,22.119 C12.055,21.705 12.391,21.369 12.805,21.369 L31.433,21.369 C31.847,21.369 32.183,21.705 32.183,22.119 C32.183,22.533 31.848,22.869 31.434,22.869 Z" id="Shape"></path>
            <path d="M22.119,32.183 C21.705,32.183 21.369,31.847 21.369,31.433 L21.369,12.806 C21.369,12.392 21.705,12.056 22.119,12.056 C22.533,12.056 22.869,12.392 22.869,12.806 L22.869,31.432 C22.869,31.847 22.533,32.183 22.119,32.183 Z" id="Shape"></path>
        </g>
    </g>
</svg>